<svg xmlns="http://www.w3.org/2000/svg" width="1200" height="380" viewBox="0 0 1200 380" role="img" aria-label="Hazem Elerefy — Applied AI & Data Analyst">
  <title>Hazem Elerefy — Hero Banner Light</title>
  <defs>
    <linearGradient id="bg-grad" x1="0" y1="0" x2="0.2" y2="1">
      <stop offset="0%" stop-color="#fafbff"/>
      <stop offset="50%" stop-color="#f0f2ff"/>
      <stop offset="100%" stop-color="#e8ecff"/>
    </linearGradient>
    <radialGradient id="bg-glow-c" cx="0.5" cy="0.4" r="0.5">
      <stop offset="0%" stop-color="#ddd6fe" stop-opacity="0.4"/>
      <stop offset="100%" stop-color="#fafbff" stop-opacity="0"/>
    </radialGradient>
    <linearGradient id="name-grad" x1="0" y1="0" x2="1" y2="0">
      <stop offset="0%" stop-color="#0891b2"/>
      <stop offset="35%" stop-color="#7c3aed"/>
      <stop offset="65%" stop-color="#db2777"/>
      <stop offset="100%" stop-color="#0891b2"/>
    </linearGradient>
    <linearGradient id="grid-fade" x1="0" y1="0" x2="0" y2="1">
      <stop offset="0%" stop-color="#7c3aed" stop-opacity="0.12"/>
      <stop offset="100%" stop-color="#7c3aed" stop-opacity="0"/>
    </linearGradient>
    <filter id="glow-sm">
      <feGaussianBlur stdDeviation="2" result="b"/>
      <feMerge><feMergeNode in="b"/><feMergeNode in="SourceGraphic"/></feMerge>
    </filter>
    <filter id="glow-md">
      <feGaussianBlur stdDeviation="4" result="b"/>
      <feMerge><feMergeNode in="b"/><feMergeNode in="SourceGraphic"/></feMerge>
    </filter>
  </defs>

  <!-- Background -->
  <rect width="1200" height="380" fill="url(#bg-grad)"/>
  <rect width="1200" height="380" fill="url(#bg-glow-c)"/>

  <!-- Subtle dot grid -->
  <g fill="#7c3aed" opacity="0.06">
    <circle cx="60" cy="60" r="1.5"/><circle cx="120" cy="60" r="1.5"/><circle cx="180" cy="60" r="1.5"/><circle cx="240" cy="60" r="1.5"/><circle cx="300" cy="60" r="1.5"/><circle cx="360" cy="60" r="1.5"/><circle cx="420" cy="60" r="1.5"/><circle cx="480" cy="60" r="1.5"/><circle cx="540" cy="60" r="1.5"/><circle cx="600" cy="60" r="1.5"/><circle cx="660" cy="60" r="1.5"/><circle cx="720" cy="60" r="1.5"/><circle cx="780" cy="60" r="1.5"/><circle cx="840" cy="60" r="1.5"/><circle cx="900" cy="60" r="1.5"/><circle cx="960" cy="60" r="1.5"/><circle cx="1020" cy="60" r="1.5"/><circle cx="1080" cy="60" r="1.5"/><circle cx="1140" cy="60" r="1.5"/>
    <circle cx="60" cy="120" r="1.5"/><circle cx="120" cy="120" r="1.5"/><circle cx="180" cy="120" r="1.5"/><circle cx="240" cy="120" r="1.5"/><circle cx="300" cy="120" r="1.5"/><circle cx="360" cy="120" r="1.5"/><circle cx="420" cy="120" r="1.5"/><circle cx="480" cy="120" r="1.5"/><circle cx="540" cy="120" r="1.5"/><circle cx="600" cy="120" r="1.5"/><circle cx="660" cy="120" r="1.5"/><circle cx="720" cy="120" r="1.5"/><circle cx="780" cy="120" r="1.5"/><circle cx="840" cy="120" r="1.5"/><circle cx="900" cy="120" r="1.5"/><circle cx="960" cy="120" r="1.5"/><circle cx="1020" cy="120" r="1.5"/><circle cx="1080" cy="120" r="1.5"/><circle cx="1140" cy="120" r="1.5"/>
    <circle cx="60" cy="180" r="1.5"/><circle cx="120" cy="180" r="1.5"/><circle cx="180" cy="180" r="1.5"/><circle cx="240" cy="180" r="1.5"/><circle cx="300" cy="180" r="1.5"/><circle cx="360" cy="180" r="1.5"/><circle cx="420" cy="180" r="1.5"/><circle cx="480" cy="180" r="1.5"/><circle cx="540" cy="180" r="1.5"/><circle cx="600" cy="180" r="1.5"/><circle cx="660" cy="180" r="1.5"/><circle cx="720" cy="180" r="1.5"/><circle cx="780" cy="180" r="1.5"/><circle cx="840" cy="180" r="1.5"/><circle cx="900" cy="180" r="1.5"/><circle cx="960" cy="180" r="1.5"/><circle cx="1020" cy="180" r="1.5"/><circle cx="1080" cy="180" r="1.5"/><circle cx="1140" cy="180" r="1.5"/>
    <circle cx="60" cy="240" r="1.5"/><circle cx="120" cy="240" r="1.5"/><circle cx="180" cy="240" r="1.5"/><circle cx="240" cy="240" r="1.5"/><circle cx="300" cy="240" r="1.5"/><circle cx="360" cy="240" r="1.5"/><circle cx="420" cy="240" r="1.5"/><circle cx="480" cy="240" r="1.5"/><circle cx="540" cy="240" r="1.5"/><circle cx="600" cy="240" r="1.5"/><circle cx="660" cy="240" r="1.5"/><circle cx="720" cy="240" r="1.5"/><circle cx="780" cy="240" r="1.5"/><circle cx="840" cy="240" r="1.5"/><circle cx="900" cy="240" r="1.5"/><circle cx="960" cy="240" r="1.5"/><circle cx="1020" cy="240" r="1.5"/><circle cx="1080" cy="240" r="1.5"/><circle cx="1140" cy="240" r="1.5"/>
    <circle cx="60" cy="300" r="1.5"/><circle cx="120" cy="300" r="1.5"/><circle cx="180" cy="300" r="1.5"/><circle cx="240" cy="300" r="1.5"/><circle cx="300" cy="300" r="1.5"/><circle cx="360" cy="300" r="1.5"/><circle cx="420" cy="300" r="1.5"/><circle cx="480" cy="300" r="1.5"/><circle cx="540" cy="300" r="1.5"/><circle cx="600" cy="300" r="1.5"/><circle cx="660" cy="300" r="1.5"/><circle cx="720" cy="300" r="1.5"/><circle cx="780" cy="300" r="1.5"/><circle cx="840" cy="300" r="1.5"/><circle cx="900" cy="300" r="1.5"/><circle cx="960" cy="300" r="1.5"/><circle cx="1020" cy="300" r="1.5"/><circle cx="1080" cy="300" r="1.5"/><circle cx="1140" cy="300" r="1.5"/>
    <circle cx="60" cy="360" r="1.5"/><circle cx="120" cy="360" r="1.5"/><circle cx="180" cy="360" r="1.5"/><circle cx="240" cy="360" r="1.5"/><circle cx="300" cy="360" r="1.5"/><circle cx="360" cy="360" r="1.5"/><circle cx="420" cy="360" r="1.5"/><circle cx="480" cy="360" r="1.5"/><circle cx="540" cy="360" r="1.5"/><circle cx="600" cy="360" r="1.5"/><circle cx="660" cy="360" r="1.5"/><circle cx="720" cy="360" r="1.5"/><circle cx="780" cy="360" r="1.5"/><circle cx="840" cy="360" r="1.5"/><circle cx="900" cy="360" r="1.5"/><circle cx="960" cy="360" r="1.5"/><circle cx="1020" cy="360" r="1.5"/><circle cx="1080" cy="360" r="1.5"/><circle cx="1140" cy="360" r="1.5"/>
  </g>

  <!-- Corner brackets -->
  <g stroke="#7c3aed" stroke-width="1.5" fill="none" opacity="0.2">
    <path d="M30,30 L30,10 L50,10"/>
    <path d="M1170,30 L1170,10 L1150,10"/>
    <path d="M30,350 L30,370 L50,370"/>
    <path d="M1170,350 L1170,370 L1150,370"/>
  </g>

  <!-- Flanking accent lines -->
  <g opacity="0.2">
    <line x1="100" y1="155" x2="280" y2="155" stroke="#7c3aed" stroke-width="1"/>
    <line x1="920" y1="155" x2="1100" y2="155" stroke="#0891b2" stroke-width="1"/>
  </g>

  <!-- Decorative dots -->
  <g fill="#7c3aed" opacity="0.3">
    <circle cx="275" cy="155" r="2.5"/>
    <circle cx="925" cy="155" r="2.5"/>
  </g>

  <!-- Central glow -->
  <ellipse cx="600" cy="155" rx="350" ry="50" fill="#7c3aed" opacity="0.03" filter="url(#glow-md)"/>

  <!-- Main name -->
  <text x="600" y="168" text-anchor="middle" font-family="'JetBrains Mono','SF Mono','Fira Code','Cascadia Code',monospace" font-size="62" font-weight="800" fill="url(#name-grad)" letter-spacing="8">HAZEM ELEREFY</text>

  <!-- Role tagline -->
  <text x="600" y="210" text-anchor="middle" font-family="'JetBrains Mono','SF Mono','Fira Code',monospace" font-size="15" fill="#7c3aed" letter-spacing="3" opacity="0.75">APPLIED AI &amp; DATA ANALYST  ·  FRONTEND-DESIGN CRAFTSMAN</text>

  <!-- Tech keywords -->
  <text x="600" y="240" text-anchor="middle" font-family="'JetBrains Mono','SF Mono','Fira Code',monospace" font-size="11" fill="#64748b" letter-spacing="2" opacity="0.45">SQL  ·  PYTHON  ·  POWER BI  ·  YOLO  ·  AUTONOMOUS AGENTS  ·  REACT  ·  THREE.JS</text>

  <!-- Bottom accent -->
  <line x1="0" y1="370" x2="1200" y2="370" stroke="#7c3aed" stroke-width="0.5" opacity="0.15"/>
  <rect x="0" y="370" width="1200" height="10" fill="url(#name-grad)" opacity="0.06"/>
</svg>